HIERARCHY
ROOT RootJoint
{
    OFFSET   0.000000   0.000000   0.000000
    CHANNELS 6 Xposition Yposition Zposition Xrotation Yrotation Zrotation
    JOINT pelvis_lowerback
    {
        OFFSET   0.000000   0.093605   0.000000
        CHANNELS 3 Xrotation Yrotation Zrotation
        JOINT lowerback_torso
        {
            OFFSET   0.000000   0.100000   0.000000
            CHANNELS 3 Xrotation Yrotation Zrotation
            JOINT torso_head
            {
                OFFSET   0.000000   0.282350   0.000000
                CHANNELS 3 Xrotation Yrotation Zrotation
                End Site
                {
                    OFFSET   0.000000   0.192650   0.000000
                }
            }
            JOINT rTorso_Clavicle
            {
                OFFSET  -0.001000   0.157500   0.000000
                CHANNELS 3 Xrotation Yrotation Zrotation
                JOINT rShoulder
                {
                    OFFSET  -0.117647   0.000000   0.000000
                    CHANNELS 3 Xrotation Yrotation Zrotation
                    JOINT rElbow
                    {
                        OFFSET  -0.245000   0.000000   0.000000
                        CHANNELS 3 Xrotation Yrotation Zrotation
                        JOINT rWrist
                        {
                            OFFSET  -0.240000   0.000000   0.000000
                            CHANNELS 3 Xrotation Yrotation Zrotation
                            End Site
                            {
                                OFFSET  -0.116353  -0.002500   0.000000
                            }
                        }
                    }
                }
            }
            JOINT lTorso_Clavicle
            {
                OFFSET   0.001000   0.157500   0.000000
                CHANNELS 3 Xrotation Yrotation Zrotation
                JOINT lShoulder
                {
                    OFFSET   0.117647   0.000000   0.000000
                    CHANNELS 3 Xrotation Yrotation Zrotation
                    JOINT lElbow
                    {
                        OFFSET   0.245000   0.000000   0.000000
                        CHANNELS 3 Xrotation Yrotation Zrotation
                        JOINT lWrist
                        {
                            OFFSET   0.240000   0.000000   0.000000
                            CHANNELS 3 Xrotation Yrotation Zrotation
                            End Site
                            {
                                OFFSET   0.116353  -0.002500   0.000000
                            }
                        }
                    }
                }
            }
        }
    }
    JOINT rHip
    {
        OFFSET  -0.100000  -0.051395   0.000000
        CHANNELS 3 Xrotation Yrotation Zrotation
        JOINT rKnee
        {
            OFFSET   0.000000  -0.410000   0.000000
            CHANNELS 3 Xrotation Yrotation Zrotation
            JOINT rAnkle
            {
                OFFSET   0.000000  -0.390000   0.000000
                CHANNELS 3 Xrotation Yrotation Zrotation
                JOINT rToeJoint
                {
                    OFFSET   0.000000  -0.050000   0.130000
                    CHANNELS 3 Xrotation Yrotation Zrotation
                    End Site
                    {
                        OFFSET  -0.010000   0.002000   0.060000
                    }
                }
            }
        }
    }
    JOINT lHip
    {
        OFFSET   0.100000  -0.051395   0.000000
        CHANNELS 3 Xrotation Yrotation Zrotation
        JOINT lKnee
        {
            OFFSET   0.000000  -0.410000   0.000000
            CHANNELS 3 Xrotation Yrotation Zrotation
            JOINT lAnkle
            {
                OFFSET   0.000000  -0.390000   0.000000
                CHANNELS 3 Xrotation Yrotation Zrotation
                JOINT lToeJoint
                {
                    OFFSET   0.000000  -0.050000   0.130000
                    CHANNELS 3 Xrotation Yrotation Zrotation
                    End Site
                    {
                        OFFSET   0.010000   0.002000   0.060000
                    }
                }
            }
        }
    }
}
MOTION
Frames: 10
Frame Time:   0.008333
 -2.891180   0.902613   4.676806  -0.411980 -14.126030  -1.327780  16.126244  -0.445365  -2.296288   7.323142  -1.919187   1.232579  -0.019892  -0.178853  -1.154106   1.892468  14.154645   6.672394   8.044401  13.340581  33.109103   0.002112  17.354090  -0.001088  10.360384   1.693912  -1.498713  -2.614023 -19.421793  -9.553906  -1.279890 -17.117004 -24.206514  -0.002504 -21.712988  -0.001759   7.138660  -1.871064   8.717225 -12.703842  -8.537629   5.515387  20.056886   0.001291   0.000455  -8.507618 -14.187386  -2.784739   0.094511   0.002044  -0.000085  -4.059577   3.273607   7.515121  37.501227  -0.005131   0.010294 -12.924168  -2.079057  -7.001093 -12.790490   0.000794   0.000914
 -2.892959   0.902708   4.679162  -0.377085 -14.363333  -1.345926  16.080466  -0.376903  -2.279508   7.314435  -1.948115   1.265859   0.028803  -0.161333  -1.102217   2.002059  14.117834   6.649780   7.876494  13.279203  32.667349   0.002023  17.261571  -0.001103  10.392565   1.603262  -1.523027  -2.567813 -19.509873  -9.752163  -1.041560 -17.123232 -24.444102  -0.002764 -21.568750  -0.001928   7.188620  -1.950785   8.468946 -12.486282  -8.470459   5.684511  19.931905   0.001155   0.000532  -8.580578 -14.025967  -3.124283   0.010456   0.001445  -0.000063  -5.165556   3.491316   7.750832  40.272745  -0.004125   0.012752 -12.297959  -2.077694  -7.416016 -11.445760   0.004547   0.007111
 -2.894617   0.902861   4.681679  -0.374172 -14.652629  -1.342043  16.037585  -0.288300  -2.274855   7.317595  -1.953663   1.289328   0.074160  -0.144851  -1.051206   2.100564  14.085769   6.636180   7.716649  13.225075  32.250246   0.001897  17.175618  -0.001105  10.423831   1.511454  -1.576680  -2.508034 -19.571595  -9.954953  -0.809617 -17.111619 -24.676985  -0.002932 -21.424704  -0.002040   7.229008  -1.993623   8.214944 -12.239169  -8.367984   5.815898  19.813069   0.001029   0.000615  -8.656567 -13.846059  -3.449914  -0.069455   0.000974  -0.000041  -6.186659   3.718693   7.931173  43.083098  -0.003122   0.013289 -11.699521  -2.081231  -7.804450 -10.192167   0.007534   0.011090
 -2.896195   0.903065   4.684322  -0.370215 -14.946348  -1.318610  15.979665  -0.198602  -2.268934   7.318231  -1.949267   1.311183   0.115429  -0.129787  -1.002099   2.194171  14.053129   6.627409   7.567871  13.175095  31.864004   0.001745  17.095586  -0.001090  10.453520   1.425476  -1.631045  -2.439610 -19.614820 -10.153297  -0.586310 -17.090746 -24.903741  -0.002985 -21.285720  -0.002085   7.264034  -2.011717   7.949601 -11.987898  -8.254326   5.917666  19.690285   0.000920   0.000690  -8.734371 -13.664830  -3.758103  -0.144598   0.000612  -0.000025  -7.121301   3.935619   8.075305  45.759013  -0.002250   0.012777 -11.139078  -2.088440  -8.167452  -9.044937   0.009629   0.013367
 -2.897714   0.903304   4.687050  -0.355485 -15.225697  -1.278775  15.908942  -0.112046  -2.257864   7.311176  -1.940761   1.335727   0.151927  -0.115897  -0.954964   2.283887  14.019395   6.621795   7.430082  13.128071  31.506612   0.001583  17.020717  -0.001058  10.481636   1.344639  -1.678711  -2.368869 -19.646319 -10.341346  -0.373980 -17.065594 -25.119605  -0.002935 -21.153454  -0.002071   7.295482  -2.015518   7.681768 -11.742240  -8.140687   5.995201  19.563319   0.000825   0.000749  -8.814515 -13.491775  -4.049681  -0.215308   0.000337  -0.000014  -7.982594   4.140523   8.195989  48.272878  -0.001489   0.011922 -10.615882  -2.098154  -8.506460  -7.996218   0.010945   0.014535
 -2.899185   0.903569   4.689838  -0.327587 -15.484967  -1.224927  15.829184  -0.029025  -2.240965   7.296179  -1.929798   1.364390   0.184198  -0.102965  -0.909989   2.369433  13.985581   6.618465   7.302323  13.083948  31.175451   0.001417  16.950645  -0.001012  10.508320   1.268008  -1.719305  -2.299773 -19.670028 -10.515849  -0.173781 -17.038846 -25.321410  -0.002802 -21.028577  -0.002010   7.324392  -2.011115   7.420685 -11.505952  -8.031243   6.052324  19.433725   0.000740   0.000789  -8.897471 -13.329768  -4.325821  -0.282020   0.000130  -0.000005  -8.779211   4.333770   8.300333  50.625546  -0.000848   0.011007 -10.127820  -2.109637  -8.822968  -7.037630   0.011633   0.014962
 -2.900618   0.903851   4.692669  -0.286270 -15.720623  -1.158797  15.743463   0.049939  -2.218176   7.274246  -1.917363   1.397772   0.212969  -0.090888  -0.867252   2.450538  13.952546   6.617028   7.183624  13.042820  30.868301   0.001255  16.885142  -0.000953  10.533701   1.195326  -1.753818  -2.234526 -19.688418 -10.675470   0.013942 -17.012018 -25.507743  -0.002613 -20.911258  -0.001918   7.351399  -2.002047   7.172310 -11.280666  -7.925561   6.092360  19.302810   0.000662   0.000805  -8.982991 -13.176934  -4.587411  -0.345089  -0.000023  -0.000004  -9.517559   4.515422   8.392799  52.824390  -0.000311   0.010176  -9.672614  -2.122385  -9.118405  -6.161340   0.011839   0.014901
 -2.902011   0.904005   4.695515  -0.280276 -16.025702  -1.082497  15.735695   0.159982  -2.207583   7.199739  -1.927746   1.393082   0.238659  -0.059713  -0.779009   2.524056  13.875485   6.684980   7.010259  13.079628  30.549671   0.000894  16.949123  -0.000575  10.540663   1.062356  -1.823113  -2.246967 -19.549058 -10.881869   0.137351 -16.891998 -25.718537  -0.002321 -20.815383  -0.001579   7.361701  -2.084581   6.964436 -11.091457  -7.845668   6.095787  19.323855   0.000516   0.000599  -9.177797 -12.926972  -4.815737  -0.270155   0.000109  -0.000003 -10.302336   4.731448   8.481929  55.259598  -0.000147   0.009184  -9.060659  -2.012624  -9.266281  -5.364753   0.010682   0.015530
 -2.903394   0.904107   4.698472  -0.302109 -16.375755  -1.006551  15.733185   0.291727  -2.204651   7.140658  -1.907400   1.384331   0.263592  -0.032060  -0.695542   2.586456  13.809865   6.769022   6.841255  13.126411  30.262429   0.000625  17.018037  -0.000261  10.545992   0.988805  -1.912972  -2.238782 -19.383641 -11.081996   0.264085 -16.753523 -25.919772  -0.002079 -20.716454  -0.001300   7.361447  -2.136695   6.784949 -10.888129  -7.778379   6.079946  19.382244   0.000374   0.000325  -9.354228 -12.703025  -5.030804   0.063678   0.000663  -0.000243 -11.035875   4.937869   8.565054  57.616560  -0.000870   0.007498  -8.483754  -1.910557  -9.405082  -4.623315   0.009449   0.015338
 -2.904790   0.904209   4.701498  -0.336212 -16.704296  -0.933908  15.732796   0.422321  -2.194406   7.092875  -1.874337   1.384190   0.285988  -0.007025  -0.616895   2.644799  13.751573   6.862035   6.682217  13.174834  30.003788   0.000440  17.084473  -0.000034  10.550956   0.939999  -1.994613  -2.218624 -19.213563 -11.273233   0.389951 -16.611608 -26.112252  -0.001863 -20.618230  -0.001067   7.357221  -2.156735   6.605063 -10.671879  -7.682058   6.067066  19.448780   0.000260   0.000113  -9.566865 -12.452059  -5.250058   0.007368   0.000434  -0.000190 -11.737031   5.118234   8.651057  59.834548  -0.001598   0.006172  -7.944257  -1.816510  -9.535131  -3.943882   0.008285   0.014758
